<?xml version="1.0"?>
<svg version="1.1" xmlns="http://www.w3.org/2000/svg" width="150" height="37" style=""><path fill="#000203" d="M27.64453125,32.890625l-1.0078125-4.58203125l-1.359375-5.7890625l-0.08203125,0l-2.390625,10.37109375l-3.84375,0l-3.7265625-13.1015625l3.5625,0l1.51171875,5.80078125q0.36328125,1.55859375,0.73828125,4.30078125l0.0703125,0q0.046875-0.890625,0.41015625-2.82421875l0.1875-0.99609375l1.6171875-6.28125l3.9375,0l1.53515625,6.28125q0.046875,0.2578125,0.146484375,0.76171875t0.193359375,1.072265625t0.169921875,1.11328125t0.087890625,0.873046875l0.0703125,0q0.10546875-0.84375,0.375-2.314453125t0.38671875-1.986328125l1.5703125-5.80078125l3.50390625,0l-3.7734375,13.1015625l-3.890625,0z M41.9152734375,26.31640625q0,1.9453125,0.638671875,2.94140625t2.080078125,0.99609375q1.4296875,0,2.056640625-0.990234375t0.626953125-2.947265625q0-1.9453125-0.6328125-2.91796875t-2.07421875-0.97265625q-1.4296875,0-2.0625,0.966796875t-0.6328125,2.923828125z M50.9738671875,26.31640625q0,3.19921875-1.6875,5.00390625t-4.69921875,1.8046875q-1.88671875,0-3.328125-0.826171875t-2.21484375-2.373046875t-0.7734375-3.609375q0-3.2109375,1.67578125-4.9921875t4.7109375-1.78125q1.88671875,0,3.328125,0.8203125t2.21484375,2.35546875t0.7734375,3.59765625z M67.670390625,32.890625l-3.57421875,0l0-7.65234375q0-1.41796875-0.50390625-2.126953125t-1.60546875-0.708984375q-1.5,0-2.16796875,1.001953125t-0.66796875,3.322265625l0,6.1640625l-3.57421875,0l0-13.1015625l2.73046875,0l0.48046875,1.67578125l0.19921875,0q0.59765625-0.94921875,1.646484375-1.435546875t2.384765625-0.486328125q2.28515625,0,3.46875,1.236328125t1.18359375,3.568359375l0,8.54296875z M77.1481640625,33.125q-2.30859375,0-3.626953125-1.79296875t-1.318359375-4.96875q0-3.22265625,1.341796875-5.021484375t3.697265625-1.798828125q2.47265625,0,3.7734375,1.921875l0.1171875,0q-0.26953125-1.46484375-0.26953125-2.61328125l0-4.1953125l3.5859375,0l0,18.234375l-2.7421875,0l-0.69140625-1.69921875l-0.15234375,0q-1.21875,1.93359375-3.71484375,1.93359375z M78.4020703125,30.27734375q1.37109375,0,2.009765625-0.796875t0.697265625-2.70703125l0-0.38671875q0-2.109375-0.650390625-3.0234375t-2.115234375-0.9140625q-1.1953125,0-1.857421875,1.013671875t-0.662109375,2.947265625t0.66796875,2.900390625t1.91015625,0.966796875z M101.930625,32.890625l-3.57421875,0l0-7.65234375q0-1.41796875-0.50390625-2.126953125t-1.60546875-0.708984375q-1.5,0-2.16796875,1.001953125t-0.66796875,3.322265625l0,6.1640625l-3.57421875,0l0-13.1015625l2.73046875,0l0.48046875,1.67578125l0.19921875,0q0.59765625-0.94921875,1.646484375-1.435546875t2.384765625-0.486328125q2.28515625,0,3.46875,1.236328125t1.18359375,3.568359375l0,8.54296875z M112.5802734375,33.125q-6.1171875,0-6.1171875-6.71484375q0-3.33984375,1.6640625-5.103515625t4.76953125-1.763671875q2.2734375,0,4.078125,0.890625l-1.0546875,2.765625q-0.84375-0.33984375-1.5703125-0.556640625t-1.453125-0.216796875q-2.7890625,0-2.7890625,3.9609375q0,3.84375,2.7890625,3.84375q1.03125,0,1.91015625-0.275390625t1.7578125-0.861328125l0,3.05859375q-0.8671875,0.55078125-1.751953125,0.76171875t-2.232421875,0.2109375z M124.097109375,26.31640625q0,1.9453125,0.638671875,2.94140625t2.080078125,0.99609375q1.4296875,0,2.056640625-0.990234375t0.626953125-2.947265625q0-1.9453125-0.6328125-2.91796875t-2.07421875-0.97265625q-1.4296875,0-2.0625,0.966796875t-0.6328125,2.923828125z M133.155703125,26.31640625q0,3.19921875-1.6875,5.00390625t-4.69921875,1.8046875q-1.88671875,0-3.328125-0.826171875t-2.21484375-2.373046875t-0.7734375-3.609375q0-3.2109375,1.67578125-4.9921875t4.7109375-1.78125q1.88671875,0,3.328125,0.8203125t2.21484375,2.35546875t0.7734375,3.59765625z"/><path fill="#" d=""/></svg>
